<?xml version="1.0" encoding="UTF-8"?>
<svg version="1.1" xmlns="http://www.w3.org/2000/svg" width="512" height="512">
<path d="M0 0 C1.01790619 0.00215515 2.03581238 0.0043103 3.08456421 0.00653076 C17.69363523 0.05620146 32.02575853 0.30709809 46.375 3.3125 C47.34985352 3.51117676 48.32470703 3.70985352 49.32910156 3.91455078 C92.59881524 12.96579926 132.80019334 31.35020671 166.375 60.3125 C167.12007813 60.94671875 167.86515625 61.5809375 168.6328125 62.234375 C182.13779833 74.04551515 194.80918743 86.79610228 205.375 101.3125 C206.23149066 102.46244831 207.08826433 103.61218589 207.9453125 104.76171875 C213.9859414 112.95339526 219.34505071 121.46895078 224.375 130.3125 C224.73948242 130.94430176 225.10396484 131.57610352 225.47949219 132.22705078 C247.08534998 169.97532572 256.85198095 212.74189997 256.6875 255.9375 C256.68534485 256.95540619 256.6831897 257.97331238 256.68096924 259.02206421 C256.63129854 273.63113523 256.38040191 287.96325853 253.375 302.3125 C253.07698486 303.77478027 253.07698486 303.77478027 252.77294922 305.26660156 C243.72170074 348.53631524 225.33729329 388.73769334 196.375 422.3125 C195.74078125 423.05757813 195.1065625 423.80265625 194.453125 424.5703125 C182.64198485 438.07529833 169.89139772 450.74668743 155.375 461.3125 C154.22505169 462.16899066 153.07531411 463.02576433 151.92578125 463.8828125 C143.73410474 469.9234414 135.21854922 475.28255071 126.375 480.3125 C125.74319824 480.67698242 125.11139648 481.04146484 124.46044922 481.41699219 C86.71217428 503.02284998 43.94560003 512.78948095 0.75 512.625 C-0.77685928 512.62176727 -0.77685928 512.62176727 -2.33456421 512.61846924 C-16.94363523 512.56879854 -31.27575853 512.31790191 -45.625 509.3125 C-47.08728027 509.01448486 -47.08728027 509.01448486 -48.57910156 508.71044922 C-91.84881524 499.65920074 -132.05019334 481.27479329 -165.625 452.3125 C-166.37007813 451.67828125 -167.11515625 451.0440625 -167.8828125 450.390625 C-181.38779833 438.57948485 -194.05918743 425.82889772 -204.625 411.3125 C-205.48149066 410.16255169 -206.33826433 409.01281411 -207.1953125 407.86328125 C-213.2359414 399.67160474 -218.59505071 391.15604922 -223.625 382.3125 C-223.98948242 381.68069824 -224.35396484 381.04889648 -224.72949219 380.39794922 C-246.33534998 342.64967428 -256.10198095 299.88310003 -255.9375 256.6875 C-255.93534485 255.66959381 -255.9331897 254.65168762 -255.93096924 253.60293579 C-255.88129854 238.99386477 -255.63040191 224.66174147 -252.625 210.3125 C-252.42632324 209.33764648 -252.22764648 208.36279297 -252.02294922 207.35839844 C-242.97170074 164.08868476 -224.58729329 123.88730666 -195.625 90.3125 C-194.99078125 89.56742187 -194.3565625 88.82234375 -193.703125 88.0546875 C-181.89198485 74.54970167 -169.14139772 61.87831257 -154.625 51.3125 C-153.47505169 50.45600934 -152.32531411 49.59923567 -151.17578125 48.7421875 C-142.98410474 42.7015586 -134.46854922 37.34244929 -125.625 32.3125 C-124.99319824 31.94801758 -124.36139648 31.58353516 -123.71044922 31.20800781 C-85.96217428 9.60215002 -43.19560003 -0.16448095 0 0 Z " fill="#010101" transform="translate(255.625,-0.3125)"/>
<path d="M0 0 C1.08677032 0.00021149 2.17354065 0.00042297 3.29324341 0.00064087 C19.57961187 0.03230043 35.26763201 0.62622797 51.1875 4.375 C51.97286133 4.55160156 52.75822266 4.72820313 53.56738281 4.91015625 C58.86733384 6.13374477 64.02676421 7.66127342 69.1875 9.375 C70.13979492 9.69098145 71.09208984 10.00696289 72.07324219 10.33251953 C106.56344029 21.95032754 137.3722376 39.00323287 163.45410156 64.67236328 C165.16040296 66.34838383 166.88653169 68.00152622 168.6171875 69.65234375 C175.71827306 76.49778609 182.01097595 83.72690933 187.89648438 91.63964844 C188.73757113 92.77021664 189.58494514 93.89614296 190.43945312 95.01660156 C210.59541721 121.44934368 223.68227949 152.13297773 231.25 184.375 C231.55587036 185.65346802 231.55587036 185.65346802 231.86791992 186.95776367 C233.21987914 193.14049659 233.39685137 199.05994228 233.1875 205.375 C198.94991617 211.92869989 164.28859165 215.90289967 129.5625 218.75 C128.53274048 218.83549103 127.50298096 218.92098206 126.4420166 219.00906372 C115.33589227 219.91910739 104.33819185 220.65490366 93.1875 220.375 C92.85057129 219.10922119 92.85057129 219.10922119 92.50683594 217.81787109 C88.63864457 203.62912384 81.6411039 190.48868626 70.953125 180.23046875 C69.1875 178.375 69.1875 178.375 69.1875 176.375 C68.59710938 176.10945312 68.00671875 175.84390625 67.3984375 175.5703125 C65.13033948 174.34409696 63.65397902 173.04148412 61.8125 171.25 C41.81402493 153.40749436 15.93826194 149.53047264 -9.8125 150.375 C-29.04158452 151.5930417 -47.41155366 160.98970045 -61.8125 173.375 C-63.27236328 174.53515625 -63.27236328 174.53515625 -64.76171875 175.71875 C-78.3630562 187.07152271 -85.99559618 203.78483664 -90.8125 220.375 C-127.3335862 220.16600366 -163.7347539 215.83949931 -199.8125 210.375 C-199.3686259 201.95907963 -198.36326457 194.03324823 -196.25 185.875 C-195.98606445 184.84600586 -195.72212891 183.81701172 -195.45019531 182.75683594 C-189.21990463 159.31221608 -179.09284218 137.01256973 -164.8125 117.375 C-164.40531738 116.81232422 -163.99813477 116.24964844 -163.57861328 115.66992188 C-157.53171352 107.38991475 -150.8874194 99.78682033 -143.8125 92.375 C-142.61173828 91.09496094 -142.61173828 91.09496094 -141.38671875 89.7890625 C-134.75196435 82.90455466 -127.47285223 77.06123202 -119.8125 71.375 C-119.27222168 70.97394043 -118.73194336 70.57288086 -118.17529297 70.15966797 C-85.93177481 46.49588486 -46.68750328 32.56650684 -6.67578125 31.14453125 C-5.90041016 31.11641357 -5.12503906 31.0882959 -4.32617188 31.05932617 C-2.27660034 31.00408595 -0.22606096 30.98873033 1.82421875 30.9765625 C6.09209188 30.21320308 7.54149645 28.74264089 10.1875 25.375 C11.3223141 21.40315066 11.62473824 19.35878603 9.9375 15.5625 C8.01159526 13.15511907 6.40988996 11.56037582 3.27172852 11.08447266 C-42.2424248 10.14728318 -88.73133033 23.61756507 -125.8125 50.375 C-126.781875 51.07109375 -127.75125 51.7671875 -128.75 52.484375 C-147.32500816 66.12539662 -164.2340208 81.6866957 -177.8125 100.375 C-178.96105469 101.94121094 -178.96105469 101.94121094 -180.1328125 103.5390625 C-190.38189116 117.93062591 -198.65533007 133.2421893 -205.8125 149.375 C-206.28300781 150.42300781 -206.75351563 151.47101563 -207.23828125 152.55078125 C-214.30006465 169.54966702 -218.34481394 188.18462849 -220.8125 206.375 C-222.29218324 206.23450482 -223.77124516 206.08745174 -225.25 205.9375 C-226.48556641 205.81568359 -226.48556641 205.81568359 -227.74609375 205.69140625 C-229.8125 205.375 -229.8125 205.375 -230.8125 204.375 C-231.57486838 196.74630065 -230.08119983 189.56934204 -228.3125 182.1875 C-228.04260254 181.05256104 -227.77270508 179.91762207 -227.49462891 178.74829102 C-217.46922336 137.96221481 -197.02970055 101.46462707 -167.8125 71.375 C-167.26480957 70.80152832 -166.71711914 70.22805664 -166.15283203 69.63720703 C-158.45334738 61.58624804 -150.48532282 54.28468053 -141.53173828 47.64990234 C-139.86278678 46.4122902 -138.21072447 45.15446181 -136.55859375 43.89453125 C-97.09589864 14.28869341 -48.92995803 -0.08757268 0 0 Z " fill="#EC5463" transform="translate(254.8125,21.625)"/>
<path d="M0 0 C3.60479204 0.45349583 7.20869731 0.91371326 10.8125 1.375 C12.31973633 1.56449219 12.31973633 1.56449219 13.85742188 1.7578125 C18.71048629 2.38200085 23.52481251 3.06901081 28.33203125 3.984375 C35.14 5.25915695 41.99926585 6.06313787 48.875 6.875 C49.58185944 6.95926239 50.28871887 7.04352478 51.01699829 7.13034058 C56.34336469 7.76491579 61.6713407 8.38500899 67 9 C67.75073792 9.08699158 68.50147583 9.17398315 69.27496338 9.26361084 C93.4786245 12.06351014 117.70030777 14.22501617 142 16 C142.46615723 17.08756592 142.93231445 18.17513184 143.41259766 19.2956543 C144.03789648 20.74275766 144.66339539 22.18977458 145.2890625 23.63671875 C145.59465088 24.35114136 145.90023926 25.06556396 146.21508789 25.80163574 C155.90601503 48.14709589 173.89102772 65.43551474 196.22265625 74.9453125 C221.18027585 84.42288956 247.28320416 84.67735073 272 74 C297.75307984 62.00834825 313.48434327 41.94696358 324 16 C325.22291748 15.88930176 326.44583496 15.77860352 327.70581055 15.66455078 C332.35233931 15.24381582 336.99880916 14.82243299 341.64526367 14.40087891 C343.63580817 14.2203705 345.62636749 14.04002541 347.61694336 13.85986328 C368.70547384 11.95096469 389.77588031 9.97586018 410.81738281 7.59912109 C413.19820506 7.33093323 415.57951579 7.06749135 417.9609375 6.8046875 C418.66826019 6.72346649 419.37558289 6.64224548 420.1043396 6.55856323 C424.44003533 6.08384633 428.64778731 5.92697868 433 6 C431.97627195 16.37198151 430.3123509 26.07472666 427 36 C426.74508789 36.78584473 426.49017578 37.57168945 426.22753906 38.38134766 C419.87121687 57.76261908 411.16031944 76.53790747 399 93 C398.24460937 94.03769531 397.48921875 95.07539063 396.7109375 96.14453125 C391.0853426 103.73654013 384.91270699 110.73378297 378.38134766 117.55566406 C377.15491961 118.83801618 375.94170513 120.13297661 374.73046875 121.4296875 C368.91773418 127.49046084 362.47317087 132.60511895 355.78222656 137.64892578 C354.12934184 138.90194825 352.49728202 140.18231302 350.8671875 141.46484375 C318.72828215 165.82566022 278.2121177 177.26295133 238.40234375 179.03515625 C237.25894531 179.10347656 236.11554688 179.17179688 234.9375 179.2421875 C233.91527344 179.2922998 232.89304688 179.34241211 231.83984375 179.39404297 C228.33356158 180.14220256 226.57469658 181.54844359 224 184 C222.90326393 186.65220309 222.795793 189.14677439 223 192 C224.57430764 195.62090756 225.68882926 196.79255284 229 199 C232.27282125 199.44349842 235.57542142 199.33195074 238.875 199.3125 C240.34851929 199.30512817 240.34851929 199.30512817 241.85180664 199.29760742 C291.25360335 198.526631 340.82520281 178.17943382 378 146 C378.804375 145.30648437 379.60875 144.61296875 380.4375 143.8984375 C420.28271492 108.7784564 446.37936771 60.8822849 453.99804688 8.23461914 C454.90081113 2.09918887 454.90081113 2.09918887 456 1 C457.68183948 0.76712992 459.3712416 0.58735834 461.0625 0.4375 C461.98160156 0.35371094 462.90070313 0.26992188 463.84765625 0.18359375 C464.55792969 0.12300781 465.26820313 0.06242187 466 0 C466.28022797 7.28592721 465.25457778 13.77151274 463.6875 20.875 C463.47416016 21.88691406 463.26082031 22.89882813 463.04101562 23.94140625 C455.25559655 60.24237518 440.06597609 92.94499085 417 122 C416.5678418 122.54930176 416.13568359 123.09860352 415.69042969 123.66455078 C404.11687601 138.25475885 390.71200276 151.80895978 375.65478516 162.78955078 C374.00755869 163.99447093 372.38428859 165.22699182 370.76171875 166.46484375 C323.75881744 201.77627881 261.42395979 217.23246131 203.34326172 209.27197266 C200.55913863 208.86550088 197.77930271 208.43809613 195 208 C194.2560498 207.88785156 193.51209961 207.77570313 192.74560547 207.66015625 C153.96114843 201.70885903 117.55604601 184.25760815 87 160 C86.45069824 159.5678418 85.90139648 159.13568359 85.33544922 158.69042969 C70.74524115 147.11687601 57.19104022 133.71200276 46.21044922 118.65478516 C45.00552907 117.00755869 43.77300818 115.38428859 42.53515625 113.76171875 C21.77932598 86.13372118 8.94015795 53.67802964 2 20 C1.66355469 18.43378906 1.66355469 18.43378906 1.3203125 16.8359375 C0.17378938 11.13473351 -0.08535811 5.80435157 0 0 Z " fill="#F3F5F8" transform="translate(23,280)"/>
<path d="M0 0 C0.83176758 0.00821777 1.66353516 0.01643555 2.52050781 0.02490234 C23.55373823 0.40472573 40.34957954 8.09603917 55.5625 22.625 C68.9506067 36.59689043 76.28045438 53.92589334 76 73.1875 C76.00322266 74.29029297 76.00644531 75.39308594 76.00976562 76.52929688 C75.87851306 96.75412468 68.74117049 113.23647444 54.93359375 128.09375 C38.71039198 143.66802369 19.59950574 149.78932887 -2.39453125 149.453125 C-22.1494058 148.82683476 -40.54071497 139.82286122 -54.0625 125.4375 C-67.90046544 109.18220726 -74.70358836 89.68919493 -73.49902344 68.33056641 C-72.09025455 52.61652398 -64.88390501 36.88761968 -54.3125 25.25 C-53.67054688 24.51652344 -53.02859375 23.78304687 -52.3671875 23.02734375 C-38.91782064 8.56058936 -19.80105928 -0.24008683 0 0 Z " fill="#010101" transform="translate(254.3125,191.75)"/>
<path d="M0 0 C0.83176758 0.00821777 1.66353516 0.01643555 2.52050781 0.02490234 C23.55373823 0.40472573 40.34957954 8.09603917 55.5625 22.625 C68.9506067 36.59689043 76.28045438 53.92589334 76 73.1875 C76.00322266 74.29029297 76.00644531 75.39308594 76.00976562 76.52929688 C75.87851306 96.75412468 68.74117049 113.23647444 54.93359375 128.09375 C38.71039198 143.66802369 19.59950574 149.78932887 -2.39453125 149.453125 C-22.1494058 148.82683476 -40.54071497 139.82286122 -54.0625 125.4375 C-67.90046544 109.18220726 -74.70358836 89.68919493 -73.49902344 68.33056641 C-72.09025455 52.61652398 -64.88390501 36.88761968 -54.3125 25.25 C-53.67054688 24.51652344 -53.02859375 23.78304687 -52.3671875 23.02734375 C-38.91782064 8.56058936 -19.80105928 -0.24008683 0 0 Z M-40.3125 41.25 C-50.09966254 55.28356485 -52.83901476 68.24084554 -51.00390625 85.08203125 C-50.57060882 87.21017349 -50.01468344 89.19561188 -49.3125 91.25 C-49.05597656 92.054375 -48.79945313 92.85875 -48.53515625 93.6875 C-43.47740959 107.92733609 -31.45367378 118.81293255 -18.01171875 125.21484375 C-6.69263879 129.55573548 8.29088932 130.20532314 19.58642578 125.45068359 C21.72333493 124.48311206 23.83316108 123.4739547 25.9375 122.4375 C26.61127686 122.10621094 27.28505371 121.77492188 27.97924805 121.43359375 C40.11068203 115.19156959 47.77966933 104.66637012 52.8125 92.13671875 C56.52970553 79.87325943 56.43836376 64.75172752 50.6875 53.25 C50.336875 52.486875 49.98625 51.72375 49.625 50.9375 C43.45832036 38.60414072 32.94671353 29.63244497 20.375 24.3125 C-1.3693446 17.14351302 -25.69914059 23.45703052 -40.3125 41.25 Z " fill="#424852" transform="translate(254.3125,191.75)"/>
<path d="M0 0 C9.08684714 5.51757099 13.94763671 12.39369137 17.27734375 22.3828125 C18.30933922 32.62905326 16.81470092 41.47167128 10.4453125 49.76953125 C3.66043823 57.00940696 -4.62281942 60.88282587 -14.53515625 61.6953125 C-25.06922577 61.3489311 -32.89118716 56.63916974 -39.97265625 49.1328125 C-45.66021428 42.01559507 -47.43660842 34.57928891 -47.09765625 25.5546875 C-46.0125518 16.37651235 -41.68291887 9.3830389 -34.72265625 3.3828125 C-24.44082104 -3.93978673 -11.57008134 -5.50589561 0 0 Z " fill="#F2F4F7" transform="translate(270.72265625,237.6171875)"/>
<path d="M0 0 C0 3.3 0 6.6 0 10 C-3.12446753 10.6070218 -6.24954312 11.21060879 -9.375 11.8125 C-10.22578125 11.97814453 -11.0765625 12.14378906 -11.953125 12.31445312 C-28.91638078 15.57188992 -45.90987312 17.99198672 -63.0625 20 C-64.16163727 20.12973206 -65.26077454 20.25946411 -66.39321899 20.39312744 C-81.96894061 22.22020394 -97.54444324 23.75960742 -113.1875 24.875 C-114.04522003 24.9363916 -114.90294006 24.9977832 -115.78665161 25.06103516 C-118.20509063 25.23112215 -120.62382121 25.39501742 -123.04296875 25.5546875 C-123.73657501 25.60124481 -124.43018127 25.64780212 -125.14480591 25.69577026 C-129.77399976 25.98396496 -134.36470148 26.03683167 -139 26 C-139 22.37 -139 18.74 -139 15 C-137.62602051 14.91024902 -136.25204102 14.82049805 -134.83642578 14.72802734 C-92.18300217 11.90660463 -49.58449574 8.25886428 -7.52807617 0.36376953 C-5 0 -5 0 0 0 Z " fill="#414751" transform="translate(491,248)"/>
<path d="M0 0 C8.43415137 0.90408393 16.82833749 1.95224828 25.20898438 3.2668457 C57.49692256 8.29342135 90.09847194 11.85136652 122.69067383 14.15063477 C123.42708099 14.20302307 124.16348816 14.25541138 124.92221069 14.30938721 C126.87093457 14.44606145 128.82009624 14.57645451 130.76928711 14.70629883 C133.58461539 14.96223776 136.24571086 15.37812679 139 16 C139 19.3 139 22.6 139 26 C122.92099324 25.67070602 107.10182589 24.7572221 91.14453125 22.75 C85.54219558 22.04567649 79.93897867 21.52714364 74.3125 21.0625 C55.65742293 19.46522956 36.95381107 17.11504212 18.55078125 13.65625 C13.86481984 12.79019773 9.15844991 12.1027075 4.44140625 11.4296875 C2 11 2 11 0 10 C0 6.7 0 3.4 0 0 Z " fill="#414751" transform="translate(21,248)"/>
</svg>
